<svg width="21" height="21" viewBox="0 0 21 21" fill="none" xmlns="http://www.w3.org/2000/svg">
<g clip-path="url(#clip0_29_501)">
<path d="M20.9297 10.8721C20.9297 5.32337 16.4315 0.825195 10.8828 0.825195C5.33411 0.825195 0.835938 5.32337 0.835938 10.8721C0.835938 15.8867 4.50995 20.0432 9.31299 20.7969V13.7762H6.76202V10.8721H9.31299V8.65862C9.31299 6.14062 10.813 4.74976 13.1079 4.74976C14.2071 4.74976 15.3568 4.94598 15.3568 4.94598V7.41846H14.09C12.8419 7.41846 12.4526 8.19293 12.4526 8.9875V10.8721H15.2391L14.7936 13.7762H12.4526V20.7969C17.2557 20.0432 20.9297 15.8868 20.9297 10.8721Z" fill="#1877F2"/>
<path d="M14.7924 13.776L15.2378 10.8718H12.4514V8.98725C12.4514 8.19261 12.8406 7.41821 14.0887 7.41821H15.3555V4.94574C15.3555 4.94574 14.2058 4.74951 13.1065 4.74951C10.8117 4.74951 9.31171 6.14038 9.31171 8.65837V10.8718H6.76074V13.776H9.31171V20.7966C9.83102 20.878 10.3559 20.9188 10.8815 20.9187C11.4072 20.9189 11.932 20.878 12.4514 20.7966V13.776H14.7924Z" fill="white"/>
</g>
<defs>
<clipPath id="clip0_29_501">
<rect width="20.0938" height="20.0938" fill="white" transform="translate(0.835938 0.825195)"/>
</clipPath>
</defs>
</svg>
