<svg width="22" height="22" viewBox="0 0 22 22" fill="none" xmlns="http://www.w3.org/2000/svg">
<g clip-path="url(#clip0_29_509)">
<path d="M20.2005 0.41756H2.37825C1.97387 0.413444 1.58438 0.569913 1.29524 0.852634C1.00609 1.13535 0.840909 1.52123 0.835938 1.9256V19.8198C0.841808 20.2236 1.00738 20.6086 1.29643 20.8906C1.58548 21.1726 1.97446 21.3286 2.37825 21.3244H20.2005C20.6049 21.3277 20.9941 21.1707 21.2831 20.8878C21.5721 20.6049 21.7374 20.2191 21.7428 19.8147V1.92046C21.7356 1.51728 21.5696 1.13324 21.2808 0.851816C20.992 0.570393 20.6037 0.414334 20.2005 0.41756Z" fill="#2D64BC"/>
<path d="M3.93036 8.25403H7.03384V18.239H3.93036V8.25403ZM5.48296 3.28467C5.83891 3.28467 6.18687 3.39024 6.48281 3.58802C6.77875 3.7858 7.00938 4.0669 7.14552 4.39577C7.28165 4.72464 7.31719 5.0865 7.24762 5.43557C7.17805 5.78464 7.00651 6.10523 6.75469 6.35679C6.50287 6.60835 6.1821 6.77958 5.83294 6.84881C5.48379 6.91804 5.12194 6.88217 4.79318 6.74572C4.46442 6.60928 4.18352 6.3784 3.98601 6.08229C3.7885 5.78617 3.68326 5.43814 3.68359 5.08221C3.68405 4.60531 3.87382 4.14811 4.21122 3.81105C4.54862 3.474 5.00603 3.28467 5.48296 3.28467ZM8.98058 8.25403H11.9555V9.62489H11.9967C12.4114 8.84008 13.4224 8.01242 14.9322 8.01242C18.0751 8.00557 18.6577 10.0738 18.6577 12.7556V18.239H15.5542V13.381C15.5542 12.2244 15.5337 10.7353 13.9417 10.7353C12.3497 10.7353 12.0789 11.9965 12.0789 13.3056V18.239H8.98058V8.25403Z" fill="white"/>
</g>
<defs>
<clipPath id="clip0_29_509">
<rect width="20.9092" height="20.9092" fill="white" transform="translate(0.835938 0.41748)"/>
</clipPath>
</defs>
</svg>
